<svg width="3027" height="2314" viewBox="0 0 3027 2314" fill="none" xmlns="http://www.w3.org/2000/svg">
<g opacity="0.1">
<line x1="158.142" y1="111" x2="158.142" y2="2263.55" stroke="white"/>
<line x1="315.786" y1="111" x2="315.786" y2="2263.55" stroke="white"/>
<line x1="473.428" y1="111" x2="473.428" y2="2263.55" stroke="white"/>
<line x1="631.071" y1="111" x2="631.071" y2="2263.55" stroke="white"/>
<line x1="788.713" y1="111" x2="788.713" y2="2263.55" stroke="white"/>
<line x1="946.356" y1="111" x2="946.356" y2="2263.55" stroke="white"/>
<line x1="1104" y1="111" x2="1104" y2="2263.55" stroke="white"/>
<line x1="1261.64" y1="111" x2="1261.64" y2="2263.55" stroke="white"/>
<line x1="1419.28" y1="111" x2="1419.28" y2="2263.55" stroke="white"/>
</g>
<g opacity="0.1">
<line x1="1576.93" y1="111" x2="1576.93" y2="2263.55" stroke="white"/>
<line x1="1734.57" y1="111" x2="1734.57" y2="2263.55" stroke="white"/>
<line x1="1892.21" y1="111" x2="1892.21" y2="2263.55" stroke="white"/>
<line x1="2049.86" y1="111" x2="2049.86" y2="2263.55" stroke="white"/>
<line x1="2207.5" y1="111" x2="2207.5" y2="2263.55" stroke="white"/>
<line x1="2365.14" y1="111" x2="2365.14" y2="2263.55" stroke="white"/>
<line x1="2522.78" y1="111" x2="2522.78" y2="2263.55" stroke="white"/>
<line x1="2680.43" y1="111" x2="2680.43" y2="2263.55" stroke="white"/>
<line x1="2838.07" y1="111" x2="2838.07" y2="2263.55" stroke="white"/>
</g>
<g opacity="0.1">
<line x1="3026.74" y1="241.829" x2="-3.88477e-08" y2="241.828" stroke="white"/>
<line x1="3026.74" y1="1345.43" x2="-2.63035e-08" y2="1345.43" stroke="white"/>
<line x1="3026.74" y1="399.486" x2="-3.94548e-08" y2="399.486" stroke="white"/>
<line x1="3026.74" y1="1503.09" x2="-3.94548e-08" y2="1503.09" stroke="white"/>
<line x1="3026.74" y1="557.143" x2="-3.94548e-08" y2="557.143" stroke="white"/>
<line x1="3026.74" y1="1660.75" x2="-7.891e-08" y2="1660.75" stroke="white"/>
<line x1="3026.74" y1="714.801" x2="-3.5071e-08" y2="714.8" stroke="white"/>
<line x1="3026.74" y1="1818.4" x2="-7.891e-08" y2="1818.4" stroke="white"/>
<line x1="3026.74" y1="872.458" x2="-3.1564e-08" y2="872.458" stroke="white"/>
<line x1="3026.74" y1="1976.06" x2="-7.891e-08" y2="1976.06" stroke="white"/>
<line x1="3026.74" y1="1030.12" x2="-3.1564e-08" y2="1030.12" stroke="white"/>
<line x1="3026.74" y1="2133.72" x2="-7.891e-08" y2="2133.72" stroke="white"/>
<line x1="3026.74" y1="1187.77" x2="-3.94548e-08" y2="1187.77" stroke="white"/>
</g>
<g opacity="0.2">
<rect x="155.541" y="2274.06" width="6.30571" height="39.9398" rx="3.15286" fill="white"/>
<rect x="178.662" y="2290.88" width="6.3063" height="39.9362" rx="3.15315" transform="rotate(90 178.662 2290.88)" fill="white"/>
<rect x="786.112" y="2274.06" width="6.30571" height="39.9398" rx="3.15286" fill="white"/>
<rect x="809.233" y="2290.88" width="6.3063" height="39.9362" rx="3.15315" transform="rotate(90 809.233 2290.88)" fill="white"/>
<rect x="1416.68" y="2274.06" width="6.30571" height="39.9398" rx="3.15286" fill="white"/>
<rect x="1439.8" y="2290.88" width="6.3063" height="39.9363" rx="3.15315" transform="rotate(90 1439.8 2290.88)" fill="white"/>
<rect x="155.541" y="1643.43" width="6.30571" height="39.94" rx="3.15286" fill="white"/>
<rect x="178.662" y="1660.25" width="6.3063" height="39.9362" rx="3.15315" transform="rotate(90 178.662 1660.25)" fill="white"/>
<rect x="786.112" y="1643.43" width="6.30571" height="39.94" rx="3.15286" fill="white"/>
<rect x="809.233" y="1660.25" width="6.3063" height="39.9362" rx="3.15315" transform="rotate(90 809.233 1660.25)" fill="white"/>
<rect x="1416.68" y="1643.43" width="6.30571" height="39.9398" rx="3.15286" fill="white"/>
<rect x="1439.8" y="1660.25" width="6.3063" height="39.9362" rx="3.15315" transform="rotate(90 1439.8 1660.25)" fill="white"/>
<rect x="155.541" y="1012.8" width="6.30571" height="39.9398" rx="3.15286" fill="white"/>
<rect x="178.662" y="1029.62" width="6.30637" height="39.9362" rx="3.15318" transform="rotate(90 178.662 1029.62)" fill="white"/>
<rect x="786.112" y="1012.8" width="6.30571" height="39.94" rx="3.15286" fill="white"/>
<rect x="809.233" y="1029.62" width="6.30637" height="39.9362" rx="3.15318" transform="rotate(90 809.233 1029.62)" fill="white"/>
<rect x="1416.68" y="1012.8" width="6.30571" height="39.94" rx="3.15286" fill="white"/>
<rect x="1439.8" y="1029.62" width="6.30637" height="39.9362" rx="3.15318" transform="rotate(90 1439.8 1029.62)" fill="white"/>
<rect x="155.541" y="382.171" width="6.30571" height="39.9399" rx="3.15286" fill="white"/>
<rect x="178.663" y="398.988" width="6.3063" height="39.9362" rx="3.15315" transform="rotate(90 178.663 398.988)" fill="white"/>
<rect x="786.112" y="382.171" width="6.30571" height="39.9399" rx="3.15286" fill="white"/>
<rect x="809.233" y="398.988" width="6.30631" height="39.9362" rx="3.15316" transform="rotate(90 809.233 398.988)" fill="white"/>
<rect x="1416.68" y="382.171" width="6.30571" height="39.9399" rx="3.15286" fill="white"/>
<rect x="1439.8" y="398.988" width="6.30628" height="39.9362" rx="3.15314" transform="rotate(90 1439.8 398.988)" fill="white"/>
</g>
<g opacity="0.2">
<rect x="2047.25" y="2274.06" width="6.30571" height="39.9398" rx="3.15286" fill="white"/>
<rect x="2070.38" y="2290.88" width="6.3063" height="39.9365" rx="3.15315" transform="rotate(90 2070.38 2290.88)" fill="white"/>
<rect x="2677.83" y="2274.06" width="6.30571" height="39.9398" rx="3.15286" fill="white"/>
<rect x="2700.95" y="2290.88" width="6.3063" height="39.9365" rx="3.15315" transform="rotate(90 2700.95 2290.88)" fill="white"/>
<rect x="2047.25" y="1643.43" width="6.30571" height="39.94" rx="3.15286" fill="white"/>
<rect x="2070.38" y="1660.25" width="6.3063" height="39.9362" rx="3.15315" transform="rotate(90 2070.38 1660.25)" fill="white"/>
<rect x="2677.83" y="1643.43" width="6.30571" height="39.94" rx="3.15286" fill="white"/>
<rect x="2700.95" y="1660.25" width="6.3063" height="39.9362" rx="3.15315" transform="rotate(90 2700.95 1660.25)" fill="white"/>
<rect x="2047.25" y="1012.8" width="6.30571" height="39.94" rx="3.15286" fill="white"/>
<rect x="2070.38" y="1029.62" width="6.30637" height="39.9362" rx="3.15318" transform="rotate(90 2070.38 1029.62)" fill="white"/>
<rect x="2677.83" y="1012.8" width="6.30571" height="39.9399" rx="3.15286" fill="white"/>
<rect x="2700.95" y="1029.62" width="6.30637" height="39.9362" rx="3.15318" transform="rotate(90 2700.95 1029.62)" fill="white"/>
<rect x="2047.25" y="382.171" width="6.30571" height="39.9399" rx="3.15286" fill="white"/>
<rect x="2070.38" y="398.988" width="6.3063" height="39.9362" rx="3.15315" transform="rotate(90 2070.38 398.988)" fill="white"/>
<rect x="2677.83" y="382.171" width="6.30571" height="39.9399" rx="3.15286" fill="white"/>
<rect x="2700.95" y="398.988" width="6.3063" height="39.9362" rx="3.15315" transform="rotate(90 2700.95 398.988)" fill="white"/>
</g>
<g opacity="0.4" filter="url(#filter0_f_399_500)">
<ellipse cx="2530.5" cy="249.5" rx="147.5" ry="149.5" fill="#4F71FF"/>
</g>
<g filter="url(#filter1_dii_399_500)">
<ellipse cx="2684" cy="714" rx="16" ry="15" fill="url(#paint0_linear_399_500)"/>
</g>
<g filter="url(#filter2_dii_399_500)">
<ellipse cx="1734" cy="390.5" rx="14" ry="14.5" fill="url(#paint1_linear_399_500)"/>
</g>
<g filter="url(#filter3_dii_399_500)">
<ellipse cx="2041" cy="401.5" rx="29" ry="29.5" fill="url(#paint2_linear_399_500)"/>
</g>
<g opacity="0.5" filter="url(#filter4_f_399_500)">
<ellipse cx="1103.5" cy="1250" rx="392.5" ry="393" fill="#C74FFF"/>
</g>
<defs>
<filter id="filter0_f_399_500" x="2283" y="0" width="495" height="499" filterUnits="userSpaceOnUse" color-interpolation-filters="sRGB">
<feFlood flood-opacity="0" result="BackgroundImageFix"/>
<feBlend mode="normal" in="SourceGraphic" in2="BackgroundImageFix" result="shape"/>
<feGaussianBlur stdDeviation="50" result="effect1_foregroundBlur_399_500"/>
</filter>
<filter id="filter1_dii_399_500" x="2608" y="654" width="152" height="150" filterUnits="userSpaceOnUse" color-interpolation-filters="sRGB">
<feFlood flood-opacity="0" result="BackgroundImageFix"/>
<feColorMatrix in="SourceAlpha" type="matrix" values="0 0 0 0 0 0 0 0 0 0 0 0 0 0 0 0 0 0 127 0" result="hardAlpha"/>
<feOffset dy="15"/>
<feGaussianBlur stdDeviation="30"/>
<feComposite in2="hardAlpha" operator="out"/>
<feColorMatrix type="matrix" values="0 0 0 0 0 0 0 0 0 0.46 0 0 0 0 1 0 0 0 0.5 0"/>
<feBlend mode="normal" in2="BackgroundImageFix" result="effect1_dropShadow_399_500"/>
<feBlend mode="normal" in="SourceGraphic" in2="effect1_dropShadow_399_500" result="shape"/>
<feColorMatrix in="SourceAlpha" type="matrix" values="0 0 0 0 0 0 0 0 0 0 0 0 0 0 0 0 0 0 127 0" result="hardAlpha"/>
<feMorphology radius="8" operator="erode" in="SourceAlpha" result="effect2_innerShadow_399_500"/>
<feOffset dx="-4" dy="-7"/>
<feGaussianBlur stdDeviation="11.5"/>
<feComposite in2="hardAlpha" operator="arithmetic" k2="-1" k3="1"/>
<feColorMatrix type="matrix" values="0 0 0 0 0.034375 0 0 0 0 0.277687 0 0 0 0 0.75 0 0 0 0.25 0"/>
<feBlend mode="normal" in2="shape" result="effect2_innerShadow_399_500"/>
<feColorMatrix in="SourceAlpha" type="matrix" values="0 0 0 0 0 0 0 0 0 0 0 0 0 0 0 0 0 0 127 0" result="hardAlpha"/>
<feOffset dx="-3" dy="1"/>
<feGaussianBlur stdDeviation="6.5"/>
<feComposite in2="hardAlpha" operator="arithmetic" k2="-1" k3="1"/>
<feColorMatrix type="matrix" values="0 0 0 0 0.545833 0 0 0 0 0.64575 0 0 0 0 1 0 0 0 0.4 0"/>
<feBlend mode="normal" in2="effect2_innerShadow_399_500" result="effect3_innerShadow_399_500"/>
</filter>
<filter id="filter2_dii_399_500" x="1660" y="331" width="148" height="149" filterUnits="userSpaceOnUse" color-interpolation-filters="sRGB">
<feFlood flood-opacity="0" result="BackgroundImageFix"/>
<feColorMatrix in="SourceAlpha" type="matrix" values="0 0 0 0 0 0 0 0 0 0 0 0 0 0 0 0 0 0 127 0" result="hardAlpha"/>
<feOffset dy="15"/>
<feGaussianBlur stdDeviation="30"/>
<feComposite in2="hardAlpha" operator="out"/>
<feColorMatrix type="matrix" values="0 0 0 0 0.56 0 0 0 0 0 0 0 0 0 1 0 0 0 0.4 0"/>
<feBlend mode="normal" in2="BackgroundImageFix" result="effect1_dropShadow_399_500"/>
<feBlend mode="normal" in="SourceGraphic" in2="effect1_dropShadow_399_500" result="shape"/>
<feColorMatrix in="SourceAlpha" type="matrix" values="0 0 0 0 0 0 0 0 0 0 0 0 0 0 0 0 0 0 127 0" result="hardAlpha"/>
<feMorphology radius="8" operator="erode" in="SourceAlpha" result="effect2_innerShadow_399_500"/>
<feOffset dx="-4" dy="-7"/>
<feGaussianBlur stdDeviation="11.5"/>
<feComposite in2="hardAlpha" operator="arithmetic" k2="-1" k3="1"/>
<feColorMatrix type="matrix" values="0 0 0 0 0.221833 0 0 0 0 0 0 0 0 0 0.504167 0 0 0 0.25 0"/>
<feBlend mode="normal" in2="shape" result="effect2_innerShadow_399_500"/>
<feColorMatrix in="SourceAlpha" type="matrix" values="0 0 0 0 0 0 0 0 0 0 0 0 0 0 0 0 0 0 127 0" result="hardAlpha"/>
<feOffset dx="-3" dy="1"/>
<feGaussianBlur stdDeviation="6.5"/>
<feComposite in2="hardAlpha" operator="arithmetic" k2="-1" k3="1"/>
<feColorMatrix type="matrix" values="0 0 0 0 0.862417 0 0 0 0 0.470833 0 0 0 0 1 0 0 0 0.59 0"/>
<feBlend mode="normal" in2="effect2_innerShadow_399_500" result="effect3_innerShadow_399_500"/>
</filter>
<filter id="filter3_dii_399_500" x="1952" y="327" width="178" height="179" filterUnits="userSpaceOnUse" color-interpolation-filters="sRGB">
<feFlood flood-opacity="0" result="BackgroundImageFix"/>
<feColorMatrix in="SourceAlpha" type="matrix" values="0 0 0 0 0 0 0 0 0 0 0 0 0 0 0 0 0 0 127 0" result="hardAlpha"/>
<feOffset dy="15"/>
<feGaussianBlur stdDeviation="30"/>
<feComposite in2="hardAlpha" operator="out"/>
<feColorMatrix type="matrix" values="0 0 0 0 0 0 0 0 0 0.46 0 0 0 0 1 0 0 0 0.5 0"/>
<feBlend mode="normal" in2="BackgroundImageFix" result="effect1_dropShadow_399_500"/>
<feBlend mode="normal" in="SourceGraphic" in2="effect1_dropShadow_399_500" result="shape"/>
<feColorMatrix in="SourceAlpha" type="matrix" values="0 0 0 0 0 0 0 0 0 0 0 0 0 0 0 0 0 0 127 0" result="hardAlpha"/>
<feMorphology radius="8" operator="erode" in="SourceAlpha" result="effect2_innerShadow_399_500"/>
<feOffset dx="-4" dy="-7"/>
<feGaussianBlur stdDeviation="11.5"/>
<feComposite in2="hardAlpha" operator="arithmetic" k2="-1" k3="1"/>
<feColorMatrix type="matrix" values="0 0 0 0 0.034375 0 0 0 0 0.277687 0 0 0 0 0.75 0 0 0 0.25 0"/>
<feBlend mode="normal" in2="shape" result="effect2_innerShadow_399_500"/>
<feColorMatrix in="SourceAlpha" type="matrix" values="0 0 0 0 0 0 0 0 0 0 0 0 0 0 0 0 0 0 127 0" result="hardAlpha"/>
<feOffset dx="-3" dy="1"/>
<feGaussianBlur stdDeviation="6.5"/>
<feComposite in2="hardAlpha" operator="arithmetic" k2="-1" k3="1"/>
<feColorMatrix type="matrix" values="0 0 0 0 0.545833 0 0 0 0 0.64575 0 0 0 0 1 0 0 0 0.4 0"/>
<feBlend mode="normal" in2="effect2_innerShadow_399_500" result="effect3_innerShadow_399_500"/>
</filter>
<filter id="filter4_f_399_500" x="311" y="457" width="1585" height="1586" filterUnits="userSpaceOnUse" color-interpolation-filters="sRGB">
<feFlood flood-opacity="0" result="BackgroundImageFix"/>
<feBlend mode="normal" in="SourceGraphic" in2="BackgroundImageFix" result="shape"/>
<feGaussianBlur stdDeviation="200" result="effect1_foregroundBlur_399_500"/>
</filter>
<linearGradient id="paint0_linear_399_500" x1="2684" y1="699" x2="2684" y2="729" gradientUnits="userSpaceOnUse">
<stop stop-color="#6D89FF"/>
<stop offset="1" stop-color="#334DBC"/>
</linearGradient>
<linearGradient id="paint1_linear_399_500" x1="1734" y1="376" x2="1734" y2="405" gradientUnits="userSpaceOnUse">
<stop stop-color="#BE6CFF"/>
<stop offset="1" stop-color="#68008C"/>
</linearGradient>
<linearGradient id="paint2_linear_399_500" x1="2041" y1="372" x2="2041" y2="431" gradientUnits="userSpaceOnUse">
<stop stop-color="#6D89FF"/>
<stop offset="1" stop-color="#334DBC"/>
</linearGradient>
</defs>
</svg>
